<svg width="81" height="56" viewBox="0 0 81 56" fill="none" xmlns="http://www.w3.org/2000/svg">
<path d="M53.36 0C45.6 0 41.52 2.44 37.96 4.56C34.76 6.48 32.24 8 26.68 8C21.12 8 18.6 6.48 15.4 4.56C11.84 2.4 7.8 0 0 0V8C5.56 8 8.08 9.52 11.28 11.44C14.84 13.6 18.88 16 26.68 16C34.48 16 38.52 13.56 42.08 11.44C45.28 9.52 47.8 8 53.36 8C58.92 8 61.44 9.52 64.64 11.44C68.2 13.6 72.24 16 80.04 16V8C74.48 8 71.96 6.48 68.76 4.56C65.2 2.4 61.16 0 53.36 0ZM53.36 20C45.6 20 41.52 22.44 37.96 24.56C34.76 26.48 32.24 28 26.68 28C21.12 28 18.6 26.48 15.4 24.56C11.84 22.4 7.8 20 0 20V28C5.56 28 8.08 29.52 11.28 31.44C14.84 33.6 18.88 36 26.68 36C34.48 36 38.52 33.56 42.08 31.44C45.28 29.52 47.8 28 53.36 28C58.92 28 61.44 29.52 64.64 31.44C68.2 33.6 72.24 36 80.04 36V28C74.48 28 71.96 26.48 68.76 24.56C65.2 22.4 61.16 20 53.36 20ZM53.36 40C45.6 40 41.52 42.44 37.96 44.56C34.76 46.48 32.24 48 26.68 48C21.12 48 18.6 46.48 15.4 44.56C11.84 42.4 7.8 40 0 40V48C5.56 48 8.08 49.52 11.28 51.44C14.84 53.6 18.88 56 26.68 56C34.48 56 38.52 53.56 42.08 51.44C45.28 49.52 47.8 48 53.36 48C58.92 48 61.44 49.52 64.64 51.44C68.2 53.6 72.24 56 80.04 56V48C74.48 48 71.96 46.48 68.76 44.56C65.2 42.4 61.16 40 53.36 40Z" fill="black"/>
</svg>
