<svg width="96" height="96" viewBox="0 0 96 96" fill="none" xmlns="http://www.w3.org/2000/svg">
<path d="M72 70C73.3594 71.0198 74.4366 72.3692 75.1297 73.9208C75.8228 75.4725 76.1091 77.1752 75.9615 78.8682C75.8138 80.5612 75.2372 82.1886 74.2859 83.5969C73.3347 85.0051 72.0403 86.1477 70.5248 86.9168C69.0094 87.6859 67.323 88.0561 65.6247 87.9924C63.9265 87.9288 62.2725 87.4334 60.8189 86.553C59.3653 85.6727 58.16 84.4364 57.3168 82.9609C56.4737 81.4853 56.0205 79.8193 56 78.12V48M24 48H16C13.8783 48 11.8434 47.1571 10.3431 45.6569C8.84285 44.1566 8 42.1217 8 40V20C8 17.8783 8.84285 15.8434 10.3431 14.3431C11.8434 12.8429 13.8783 12 16 12H80C82.1217 12 84.1566 12.8429 85.6569 14.3431C87.1571 15.8434 88 17.8783 88 20V40C88 42.1217 87.1571 44.1566 85.6569 45.6569C84.1566 47.1571 82.1217 48 80 48H72M24 32H72M26.4 62.288C25.458 63.2113 24.759 64.3532 24.365 65.6121C23.9711 66.8709 23.8946 68.2077 24.1423 69.5033C24.39 70.7988 24.9541 72.0131 25.7846 73.0379C26.615 74.0627 27.686 74.8662 28.9021 75.377C30.1183 75.8878 31.4418 76.0899 32.755 75.9654C34.0681 75.841 35.3301 75.3937 36.4286 74.6635C37.5271 73.9333 38.428 72.9428 39.0511 71.7803C39.6742 70.6177 40.0002 69.319 40 68V48" stroke="black" stroke-width="8" stroke-linecap="round" stroke-linejoin="round"/>
</svg>
