<svg width="96" height="96" viewBox="0 0 96 96" fill="none" xmlns="http://www.w3.org/2000/svg">
<g clip-path="url(#clip0_707882_906)">
<path d="M26.36 2.64002C35.72 -4.59998 45.88 4.24002 48.16 18C49.88 18 51.56 18.48 53.08 19.36C55.16 16.96 57 13.68 56.28 10C54.6 1.40002 64.24 -5.55998 73.4 6.32002C80.64 15.68 71.8 25.84 58 28.12C58 29.84 57.56 31.56 56.64 33.08C59.04 35.12 62.32 36.96 66 36.24C74.52 34.56 81.52 44.16 69.64 53.36C60.28 60.6 50.12 51.76 47.84 38C46.12 38 44.44 37.48 42.96 36.6C40.88 39 39 42.32 39.72 46C41.4 54.56 31.76 61.56 22.6 49.68C15.32 40.28 24.2 30.12 38 27.88C38 26.16 38.52 24.48 39.4 22.96C37 20.92 33.72 19.04 30 19.76C21.48 21.44 14.48 11.84 26.36 2.64002ZM20 64H28C30.1217 64 32.1566 64.8429 33.6569 66.3432C35.1571 67.8435 36 69.8783 36 72V96H28V88H20V96H12V72C12 69.8783 12.8429 67.8435 14.3431 66.3432C15.8434 64.8429 17.8783 64 20 64ZM20 72V80H28V72H20ZM51.72 64H60L48.28 96H40L51.72 64ZM72 64H84V72H72V88H84V96H72C69.8783 96 67.8434 95.1572 66.3431 93.6569C64.8429 92.1566 64 90.1218 64 88V72C64 69.8783 64.8429 67.8435 66.3431 66.3432C67.8434 64.8429 69.8783 64 72 64Z" fill="black"/>
</g>
<defs>
<clipPath id="clip0_707882_906">
<rect width="96" height="96" fill="white"/>
</clipPath>
</defs>
</svg>
